<?xml version="1.0" encoding="utf-8"?>
<!-- Generator: Adobe Illustrator 16.0.0, SVG Export Plug-In . SVG Version: 6.00 Build 0)  -->
<!DOCTYPE svg PUBLIC "-//W3C//DTD SVG 1.1//EN" "http://www.w3.org/Graphics/SVG/1.1/DTD/svg11.dtd">
<svg version="1.1" id="Layer_1" xmlns="http://www.w3.org/2000/svg" xmlns:xlink="http://www.w3.org/1999/xlink" x="0px" y="0px"
	 width="976.7px" height="570.8px" viewBox="0 0 976.7 570.8" style="enable-background:new 0 0 976.7 570.8;" xml:space="preserve"
	>
<style type="text/css">
<![CDATA[
	.st0{opacity:0.1;fill:#030303;}
	.st1{fill:#E2A325;}
	.st2{fill:#EAC1A4;}
	.st3{fill:#1C4056;}
	.st4{fill:#BDC4C6;}
	.st5{fill:#BF946C;}
	.st6{fill:#F2F2F2;}
	.st7{fill:#F4F4F2;}
	.st8{fill:#C28E2C;}
	.st9{fill:#FDC113;}
	.st10{fill:#FEDAC2;}
	.st11{fill:#FFDA7D;}
	.st12{fill:#FFFFFF;}
	.st13{fill:#CDCED0;}
	.st14{fill:#D1D3D4;}
	.st15{fill:#D7E7F3;}
]]>
</style>
<path class="st6" d="M944.2,500c-4.1-14.6,12.3-24.3-20.5-43.6s-68.7,0.4-140.1,0.1c-71.4-0.3-284.3-4.3-334.9-2.8
	s-147.9-14.6-203.5-14.6s-204,1.7-210,20.1c-6,18.4-37.5,80.4,18,80.4s131.9,8.3,186.7,0c54.8-8.3,311,17.9,395.1,22
	C719.2,565.9,959.2,554,944.2,500z"/>
<g>
	<g>
		<path class="st9" d="M813.6,307.3c0,0-29.5-174.2-145.9-168.3l-254.2-1.2c-28.2-0.1-54,16.6-66.3,42.9L311.9,272
			c0,0-34.1,10.6-65.8,24.5c-31.7,13.9-49.1,44-49.4,76.6l-0.3,49.1l639.2,7.2l0.5-69.9C836.2,339.8,828.1,320.9,813.6,307.3z"/>
		<path class="st15" d="M711,171.3c-35.9-13.9-169.4-9.1-169.4-9.1l-123-0.7c-20.6-0.1-39.4,12.1-48.4,31.3l-21.1,70.4l191.6,1.4
			l224.2,1.7C765,266.2,746.9,185.2,711,171.3z"/>
		<g>
			<path class="st14" d="M189.7,416.9c0,3,2.5,5.4,5.4,5.5l641.8,7.2c3,0,5.4-2.4,5.3-5.3l-0.1-13.3c0-3-2.5-5.4-5.4-5.4l-641.8-6.6
				c-3,0-5.4,2.4-5.3,5.3L189.7,416.9z"/>
		</g>
		<path class="st0" d="M400.1,425.6c0.6-2.8,0.9-5.8,0.9-8.7c0.2-29.3-28.2-53.3-63.4-53.4c-13.8-0.1-26.5,3.5-37,9.6
			c21.7,4.6,40.8,15.3,56.3,29.4c7.9,7.2,14.1,14.8,18.8,22.9L400.1,425.6z"/>
		<path class="st0" d="M737,428.1c0.6-2.8,0.9-5.8,0.9-8.7c0.2-29.3-27.5-53.2-61.9-53.4c-13.4-0.1-25.9,3.5-36.1,9.6
			c21.2,4.6,39.8,15.3,55,29.4c7.7,7.1,13.7,14.8,18.3,22.9L737,428.1z"/>
		<path class="st3" d="M641,370.7c26.9-14.9,61.1-4.8,76.4,22.5c15.3,27.4,5.8,61.7-21.1,76.6c-26.9,14.9-61.1,4.8-76.4-22.5
			C604.6,419.9,614.1,385.6,641,370.7z"/>
		<path class="st3" d="M303.4,370.5c26.1-16.2,60.8-7.8,77.4,18.8c16.6,26.6,8.8,61.3-17.3,77.5c-26.2,16.2-60.8,7.8-77.4-18.8
			C269.4,421.5,277.2,386.8,303.4,370.5z"/>
		<path class="st14" d="M373,411.5c4.3,22.1-9.9,43.2-31.8,47.2c-21.9,4-43.2-10.7-47.5-32.8c-4.3-22.1,9.9-43.2,31.8-47.2
			S368.7,389.4,373,411.5z"/>
		<path class="st14" d="M708.3,413c4.3,22.1-9.9,43.2-31.8,47.2c-21.9,4-43.2-10.7-47.5-32.8c-4.3-22.1,9.9-43.2,31.8-47.2
			C682.7,376.2,703.9,390.9,708.3,413z"/>
		
			<rect x="479.3" y="150" transform="matrix(1 7.630876e-003 -7.630876e-003 1 1.6629 -3.7083)" class="st9" width="15" height="132.1"/>
		
			<rect x="609.5" y="151" transform="matrix(1 7.698102e-003 -7.698102e-003 1 1.689 -4.7435)" class="st9" width="15" height="132.1"/>
	</g>
	<g>
		<path class="st1" d="M442.2,293.8c0,0.8,0.6,1.4,1.4,1.4h33.8c0.8,0,1.4-0.6,1.4-1.4v-6.9c0-0.8-0.6-1.4-1.4-1.4h-33.8
			c-0.8,0-1.4,0.6-1.4,1.4V293.8z"/>
	</g>
</g>
<g>
	<g>
		<g>
			<g>
				<g>
					<polygon class="st2" points="197.8,140.4 204.4,134.3 203.5,129.4 206,121.1 208,123.5 207.3,127.7 213.9,118.3 220.8,120.8 
						224.7,127.2 214.1,138.4 205.5,147.1 					"/>
				</g>
				<polygon class="st4" points="199.2,134.9 209.5,146.9 181.8,188.2 171.4,191.5 127.5,157.1 139.2,133.5 172,160.9 				"/>
			</g>
			<g>
				<g>
					<path class="st4" d="M59.6,459.4l-1.5,6.9c0,0,8.1,9.3,12.2,9.8s12.6-0.3,12.7-5.2s-12.5-11.4-12.5-11.4l-9.4-7.1L59.6,459.4z"
						/>
					<path class="st3" d="M102.2,246.9l-13.6,30.7c0,0,0.7,72.3-1.3,86.4S59.4,457,59.4,457l29.1,0.9l40.9-103.1l6.5-34.2l2.6-72
						L102.2,246.9z"/>
				</g>
				<g>
					<path class="st4" d="M138.3,459.6v7.1c0,0,8.2,6.9,14.5,7.1s13.2-0.4,13.1-5s-13.1-9.2-13.1-9.2H138.3z"/>
					<polygon class="st3" points="167.9,253.8 169,344.4 152.8,459.6 130.9,460.2 129.8,353.4 111.5,245.6 					"/>
				</g>
			</g>
			<path class="st4" d="M141.6,131.2l-35.5-1.3c0,0-21.3,18.3-32.2,65.8c-11.2,48.4,2.1,118.1,2.1,118.1s95.3-12.5,111-14.4
				L163,203.8L141.6,131.2z"/>
			<g>
				<path class="st2" d="M130.1,135.2c-2,1.1-5.7,1.3-7.6,1.1c-2.2-0.2-3.9-2.5-6.1-2.7c0-3.3,0.2-6.5,0.7-9.8
					c-3.5-1.2-7.5-3-8.1-6.5c-0.2-1.1,0-2.3,0.2-3.4c0.8-4.6,1.6-9.2,2.4-13.8c0.3-1.6,0.6-3.2,1.5-4.6c1.5-2.4,4.6-3.5,7.4-3.9
					c7.3-1.3,15.2,0.3,20.9,5c1.5,1.2,2.9,2.7,3.5,4.6c1,2.8,0.3,5.9-0.5,8.8c-0.7,2.7-1.4,5.3-2.1,8c-0.8,3.1-2,6.5-5,7.7
					c-1.6,0.6-3.5,0.4-4.9,1.3C129.8,128.4,131.4,132.5,130.1,135.2z"/>
			</g>
			<path class="st12" d="M131,134.4L169.1,282l3.1,19.2l-46.5,6c0,0,1.8-70.2,1.2-79.5c-0.6-9.4-7.5-29.6-8.6-51.4
				c-0.6-12.6-4.8-35.9-1.9-43.3c0,0,2.2,1.6,7.1,2.1S131,134.4,131,134.4z"/>
		</g>
	</g>
	<path class="st3" d="M124.7,99.3c0,0,15.9,11.3,24.4,7.9c3.8-1.6,10.9-12.7,7.9-20.2c-3-7.5-2.7-8.4-8.7-9.1s-3.9,1.2-13.9,3.7
		c-10,2.5-18.9,0.2-22,2c-5.6,3.2-6.8,15-7.1,19.1c-0.4,4.1,0,12.5,5,12.3S110.3,101.6,124.7,99.3z"/>
</g>
<g>
	<g>
		<polygon class="st3" points="659.2,146.6 669.9,138 666.3,133.4 657.7,137.7 657.1,134.7 648.9,143.1 651.9,148.4 		"/>
	</g>
	<g>
		<path class="st3" d="M546.9,142.7c0,0,37,23.1,47.9,22s55.9-25.4,55.9-25.4l5.4,10.8c0,0-50.3,42.1-59.3,44.3s-65-17-65-17
			L546.9,142.7z"/>
	</g>
</g>
<path class="st5" d="M447.8,195l-13.6-7c0,0,0.3-4.2,1.1-5.7c0.8-1.5,3.1-1.6,3.1-1.6l10.2,4l-3.4-3.6l1.4-0.7l7.2,4.4l5.5,5.2
	l-2.9,6.3L447.8,195z"/>
<path class="st3" d="M457.8,187.4l-3.9,9.9c-0.5,1.6,37.3,22.6,40.7,24.1c7.4,3.3,20.9,11.1,20.9,11.1c10.3,0.1,29.8-5.1,36.2-7.8
	c2.6-1.1,4.5-6.8,6.1-9c2-2.9-0.5-7.9-2.3-10.2c-3.5-4.8-9-8.2-14.9-9.3c-2.1-0.4-4.4-0.5-6.4,0c-2.2,0.6-4.9-9.1-6.7-7.9
	c-3.2,2.2-5,17-8.9,18.3C513.7,208.2,458.9,185.1,457.8,187.4z"/>
<g>
	<g>
		<polygon class="st5" points="621.7,304.5 599.2,394 598.7,460 587.8,462.3 583.5,400.9 572.8,288.5 		"/>
	</g>
	<path class="st3" d="M587.6,462.3l-1.8,6.7c0,0-0.8,10,1.5,13.1s5.3,3.5,8.8,0s3.3-19,3.3-19l-1-3.2L587.6,462.3z"/>
</g>
<g>
	<polygon class="st5" points="535.8,294.6 533.8,371.9 544.3,481.2 555.1,482 559,381.8 580.9,291 	"/>
	<path class="st3" d="M544.4,479.7c0,0-13.3,4.2-15.4,7.1s-3.1,5.8,2.3,6.7s25.6-3.1,25.6-3.1l-1.8-9.7L544.4,479.7z"/>
</g>
<polygon class="st4" points="532.6,304.6 532.6,382.4 542,456.6 557.4,455.2 560.9,383.7 579.8,307.9 577.8,296.1 535.8,296.7 "/>
<path class="st3" d="M546.3,142.7c0.2,0,0.4,0,0.7,0c10.6,0.5,23.5,14.2,30.9,22.2c19.2,20.8,32.7,44.7,42.7,71.4
	c5.4,14.4,10.2,29,14.7,43.7c1.2,4.1,9.9,41.2,12,41.4c-21.6-2.7-43.4-4.8-64.9-3.4c-21.5,1.5-42.9,6.6-61.4,17.8
	c-9.4-47.6-16.4-96.9-18.7-145.2c-0.3-5.8-1.2-11.7-0.6-17.5c0.6-6.6,4-9.6,7.7-14.6c1.3-1.7,2.6-3.4,4.2-4.9
	C521.9,146.3,535.1,142.4,546.3,142.7z"/>
<polygon class="st4" points="576.9,387.4 585.7,451.5 599.6,450.6 605.2,389.5 621.2,313.1 617.6,291.8 574.9,294.4 "/>
<path class="st12" d="M535.4,311.9c26-4.4,60.2-15.1,86.3-19.5c-13.6-44.4-35.3-93.7-60.6-132.7c-4.6-7.1-10.3-14.4-18.5-16.1
	c-8.8-1.8-24.2,3.9-25.9,13.5c-2.5,14.1,2.7,33.6,4.3,47.9C524.5,237.3,529.1,280,535.4,311.9z"/>
<g>
	<path class="st5" d="M531.9,112.5c-9.8-16.7-31.5-5.9-32.9,10.9c-0.9,11,10,23.1,21.3,24c0.2,2.6,0.6,5.3,1,7.9
		c2.9-0.8,5.7-1.5,8.6-2.3c0.9-0.2,1.9-0.6,2.2-1.4c0.2-0.5,0-1.1-0.1-1.6c-0.5-1.8-1-3.5-1.5-5.3c0.2-0.1,0.4-0.3,0.6-0.4
		c4.7-3.5,6.8-9.6,6.6-15.4C537.2,123,534.8,117.5,531.9,112.5z"/>
</g>
<path class="st3" d="M542.5,140.5c0,0,45,106.5,35.1,133.7c-9.9,27.2-8.8,47.1-8.8,47.1l61.5-1.8
	C630.2,319.5,587.9,159.1,542.5,140.5z"/>
<g>
	<g>
		<path class="st8" d="M306.9,31.6c-35.1,17.2-58.3,5-61.5,3.1c0,0-0.1-0.2-0.2-0.1c-0.1-0.1-0.1,0.2-0.1,0.2
			c-1.9,3.1-16.3,24.8-55.5,26.2c0,0,11.3,67,40,88.3c30.6,22.8,52.3,26.5,52.4,26.4c0.1,0,17.6-13.3,33.1-47.8
			C329.4,95.6,306.9,31.6,306.9,31.6z"/>
		<path class="st9" d="M303.2,39.7c-31.9,15.5-52.9,4.7-55.8,3c0,0-0.1-0.2-0.2-0.1c-0.1-0.1-0.1,0.2-0.1,0.2
			c-1.7,2.8-14.9,22.2-50.4,23.6c0,0,10,59.6,35.8,78.5c27.6,20.2,47.7,25,47.8,24.9c0.1,0,15.6-13.5,29.8-44.3
			C323.4,96.7,303.2,39.7,303.2,39.7z"/>
	</g>
	<path class="st11" d="M297.4,58.4c-24.1,11.8-43.2,3.6-45.4,2.3c0,0-0.1-0.2-0.1-0.1c-0.1-0.1-0.1,0.1-0.1,0.1
		c-1.3,2.1-13.9,18.3-40.8,19.2c0,0,10.5,44.6,30.1,59.2c20.9,15.6,35.9,18.2,35.9,18.1c0.1,0,12.1-9.1,22.7-32.8
		C309.7,102.5,297.4,58.4,297.4,58.4z"/>
</g>
<polygon class="st2" points="773.7,154.6 767.9,151.5 766.3,146 765,145.8 764.6,147.4 762,143.2 758.1,141.9 753.7,145 
	752.1,150.3 755.7,154.2 761.8,156.2 769.6,160.7 "/>
<g>
	<path class="st9" d="M781.7,166.9c0,0,27.7,23.2,34,23.3s34.8-36.7,34.8-36.7l4.2,41.6c0,0-25.5,22.4-33.9,21.9
		s-45.3-39.2-45.3-39.2L781.7,166.9z"/>
	<g>
		<path class="st10" d="M904.2,299.7l1.8,17.1c0,0-15,50.4-15.6,58.6c-0.6,8.2,14.5,94.2,14.5,94.2l-5.3,4.1l-5.3-0.5
			c0,0-28.6-82.6-29.5-92s-2.9-83.2-2.9-83.2L904.2,299.7z"/>
		<path class="st3" d="M905,471.5v5.5c0,0-5.3,7-10.4,7s-10.1-0.2-10.4-3.7s9.8-7.7,9.8-7.7s1.4,0.8,5.1,0s5.7-3.4,5.7-3.4
			L905,471.5z"/>
	</g>
	<g>
		<path class="st10" d="M824.9,318.7c0,0,4.3,57.7,5.3,63.8c1,6.1,17.1,93.9,17.1,93.9h10.2c0,0-2.7-81.9-1.1-95.9
			c1.6-14,21.4-76.2,21.4-76.2L824.9,318.7z"/>
		<path class="st3" d="M857.5,475.3v5.7c0,0-7.6,5.7-11,5.7c-9.5,0-10.6-3.3-10.7-5.3s11.4-6.1,11.4-6.1s2.6,1.2,5.2,1.2
			S857.5,475.3,857.5,475.3z"/>
	</g>
	<path class="st3" d="M895.5,253.9c0,0,18.1,41.6,10,74.5c-8.1,33-4.8,38.1-4.8,38.1l-77.9,2.2c0,0-4.2-67,0.6-82.2
		c4.7-15.2,9-29.2,9-29.2L895.5,253.9z"/>
	<path class="st9" d="M847.2,155.9c0.8-1.1,1.9-2.1,3.4-2.8c10.1-4.9,29.4-3.8,32.7-0.8c2,1.8,9.4,31.9,14.2,59.8
		c3.3,19.3,8.5,33.6,8.5,44.1c0,1.8-52.2,10.6-81,2.9c18.4-42.4,10.9-56.3,10.7-66.7c-0.1-8,5.6-15.2,7.8-22.9
		C844.8,165,844.6,159.6,847.2,155.9z"/>
	<path class="st10" d="M845.4,117.2c3.9-20.2,29.6-16.7,37-0.4c4.2,9.3-0.2,22.5-8.6,29c-0.2,1.8-0.4,6.7-1.8,7.9
		c-1.5,1.3-6.3,0.1-8.1-0.4c-0.5-0.1-1.1-0.3-1.4-0.6c-0.5-0.5-0.5-1.7-0.6-3.1c-1.4-0.1-2.8-0.4-4.2-0.8c-6-1.9-10.3-7.4-12.1-13.3
		C843.8,129.7,844.2,123.3,845.4,117.2z"/>
	<g>
		<path class="st10" d="M878.5,224.1l-5.7,4.3l-2.3-0.8l-6.4,0.7l-1.3,1.6l4.3-0.1l-9.9,6.1c0,0-0.8,3.2,0.7,5.6
			c1.5,2.4,5.4,3.6,5.4,3.6l6.7-3.4l4.8-5.1l8.1-5.6L878.5,224.1z"/>
		<path class="st9" d="M893.2,211.3c2.1-2.8,3.1-6,2-9.8c-1-3.6-3-6.7-4.8-10c-5.8-10.2-9.4-21.6-10.8-33.3
			c-1.3-11.6,16.2-2.5,19.5,1.8c3.6,4.8,5.2,10.8,7.6,16.2c3.2,7.3,6.1,14.7,8.6,22.2c1.6,4.8,6.7,15.5,2.6,20
			c-1.1,1.2-2.6,2-4.1,2.8c-2.3,1.2-30.1,14.9-31,13.7l-8.3-11C880,220.5,888.9,216.9,893.2,211.3z"/>
	</g>
	<path class="st3" d="M861.3,110.8c0,0,1.2,8.7,11.1,11c9.6,2.2,4.4,20.2,1.4,24c7.2,0.7,13.3-12.7,14.8-17.4s0.7-25.5-19-28.3
		c-6.5-0.8-9.3,1.3-9.3,1.3s-4.3-1.9-9.8,1.3s-16,24.7-9.2,36.7c4.7,7.4,7,7.5,7,7.5s-3.8-15.6-1.3-25.8
		C852.7,120.2,857.3,117.2,861.3,110.8z"/>
</g>
<polygon class="st3" points="776.8,304.6 621.5,286 647,82.8 802.3,101.4 "/>
<polygon class="st7" points="772.5,300.3 626.9,282.9 651.6,86.7 797.2,104.2 "/>
<polygon class="st13" points="770.6,182.7 661.2,169.6 661.5,166.8 771,179.8 "/>
<polygon class="st13" points="767.9,197.9 658.5,184.9 658.9,182 768.3,195.1 "/>
<polygon class="st13" points="765.3,212.6 655.8,199.5 656.2,196.6 765.6,209.7 "/>
<polygon class="st13" points="763.2,227.2 653.8,214.1 654.1,211.3 763.6,224.4 "/>
<polygon class="st13" points="761.6,243.2 652.2,230.1 652.6,227.2 762,240.3 "/>
<polygon class="st13" points="745.5,271.6 692.7,265.5 693.1,262.6 745.9,268.7 "/>
<g>
	<path class="st3" d="M676,107.9l6,0.7c1.3,0.2,2.4,0.4,3,0.7c0.9,0.4,1.7,1,2.3,1.8c0.6,0.8,1,1.7,1.2,2.8c0.2,1.1,0.3,2.4,0.1,3.9
		c-0.2,1.3-0.5,2.5-0.9,3.4c-0.5,1.1-1.2,2-2.1,2.7c-0.6,0.5-1.4,0.8-2.4,1c-0.7,0.1-1.7,0.1-2.9,0l-6.1-0.7L676,107.9z M678.9,111
		l-1.3,10.7l2.4,0.3c0.9,0.1,1.6,0.1,2,0.1c0.5-0.1,1-0.2,1.4-0.5c0.4-0.3,0.7-0.8,1-1.5c0.3-0.7,0.5-1.7,0.7-2.9s0.1-2.2,0-2.9
		c-0.1-0.7-0.4-1.3-0.7-1.7c-0.4-0.4-0.8-0.7-1.4-0.9c-0.4-0.2-1.3-0.3-2.7-0.5L678.9,111z"/>
	<path class="st3" d="M690.4,126l1.9-16.2l6.9,0.8c1.7,0.2,3,0.5,3.7,0.9c0.8,0.4,1.3,1,1.7,1.8c0.4,0.8,0.5,1.7,0.4,2.6
		c-0.1,1.2-0.6,2.2-1.4,2.9c-0.8,0.7-1.9,1.1-3.4,1.1c0.7,0.5,1.2,1,1.6,1.6c0.4,0.5,0.9,1.5,1.6,2.8l1.6,3.4l-3.9-0.5l-1.9-3.8
		c-0.7-1.4-1.2-2.2-1.4-2.6c-0.3-0.4-0.6-0.6-0.9-0.8c-0.3-0.2-0.9-0.3-1.6-0.4l-0.7-0.1l-0.8,6.8L690.4,126z M694.8,117l2.4,0.3
		c1.6,0.2,2.6,0.2,3,0.1c0.4-0.1,0.7-0.3,1-0.6c0.3-0.3,0.4-0.7,0.5-1.2c0.1-0.5,0-1-0.3-1.4s-0.6-0.6-1.2-0.8
		c-0.3-0.1-1.1-0.2-2.4-0.3l-2.5-0.3L694.8,117z"/>
	<path class="st3" d="M706.7,127.9l1.9-16.2l3.3,0.4l-1.9,16.2L706.7,127.9z"/>
	<path class="st3" d="M717.2,129.1l-3.9-16.9l3.5,0.4l2.7,12.5l5.4-11.5l3.5,0.4l-7.7,15.5L717.2,129.1z"/>
	<path class="st3" d="M728,130.4l1.9-16.2l3.3,0.4l-1.9,16.2L728,130.4z"/>
	<path class="st3" d="M734.4,131.2l1.9-16.2l3.2,0.4l5.4,11.6l1.3-10.8l3,0.4l-1.9,16.2l-3.3-0.4l-5.3-11.3l-1.2,10.6L734.4,131.2z"
		/>
	<path class="st3" d="M759,128l0.3-2.7l7,0.8l-0.8,6.4c-0.8,0.6-1.8,1-3.2,1.4c-1.4,0.4-2.7,0.4-4,0.3c-1.7-0.2-3.1-0.7-4.3-1.6
		c-1.2-0.9-2-2-2.5-3.4c-0.5-1.4-0.6-2.9-0.4-4.4c0.2-1.7,0.7-3.1,1.6-4.4c0.9-1.2,2-2.1,3.5-2.7c1.1-0.4,2.4-0.5,4-0.4
		c2,0.2,3.5,0.8,4.6,1.8c1,1,1.6,2.2,1.8,3.8l-3.3,0.2c-0.1-0.8-0.5-1.5-1.1-2c-0.6-0.5-1.3-0.9-2.3-1c-1.4-0.2-2.6,0.2-3.6,1
		c-0.9,0.8-1.5,2.1-1.7,3.9c-0.2,1.9,0,3.4,0.8,4.5c0.7,1.1,1.8,1.7,3.2,1.8c0.7,0.1,1.4,0,2.1-0.2c0.7-0.2,1.3-0.4,1.9-0.8l0.2-2.1
		L759,128z"/>
	<path class="st3" d="M669,151l1.9-16.2l6.9,0.8c1.7,0.2,3,0.5,3.7,0.9c0.7,0.4,1.3,1,1.7,1.8c0.4,0.8,0.5,1.7,0.4,2.6
		c-0.1,1.2-0.6,2.2-1.4,2.9c-0.8,0.7-1.9,1.1-3.4,1.1c0.7,0.5,1.2,1,1.6,1.6c0.4,0.5,0.9,1.5,1.6,2.8l1.6,3.4l-3.9-0.5l-1.9-3.8
		c-0.7-1.4-1.2-2.2-1.4-2.6c-0.3-0.4-0.6-0.6-0.9-0.8c-0.3-0.2-0.9-0.3-1.6-0.4l-0.7-0.1l-0.8,6.8L669,151z M673.4,142l2.4,0.3
		c1.6,0.2,2.6,0.2,3,0.1s0.7-0.3,1-0.6c0.3-0.3,0.4-0.7,0.5-1.2c0.1-0.5,0-1-0.3-1.4c-0.3-0.4-0.6-0.6-1.2-0.8
		c-0.3-0.1-1.1-0.2-2.4-0.3l-2.5-0.3L673.4,142z"/>
	<path class="st3" d="M685.4,152.9l1.9-16.2l12,1.4l-0.3,2.7l-8.7-1l-0.4,3.6l8.1,1l-0.3,2.7l-8.1-1l-0.5,4.4l9,1.1l-0.3,2.7
		L685.4,152.9z"/>
	<path class="st3" d="M711.5,149.9l3.1,1.4c-0.7,1.7-1.7,2.9-2.9,3.7s-2.7,1-4.5,0.8c-2.1-0.3-3.8-1.2-5-2.8
		c-1.2-1.6-1.7-3.7-1.4-6.3c0.3-2.7,1.3-4.7,2.8-6c1.6-1.3,3.5-1.9,5.7-1.6c2,0.2,3.5,1,4.6,2.3c0.7,0.8,1.1,1.8,1.3,3.2l-3.3,0.4
		c-0.1-0.9-0.4-1.6-1-2.1c-0.6-0.6-1.3-0.9-2.1-1c-1.2-0.1-2.2,0.2-3.1,0.9c-0.8,0.8-1.4,2.1-1.6,4.1c-0.2,2,0,3.5,0.6,4.5
		c0.6,1,1.5,1.5,2.7,1.6c0.9,0.1,1.6-0.1,2.3-0.6C710.5,151.9,711.1,151.1,711.5,149.9z"/>
	<path class="st3" d="M717.1,148.5c0.2-1.6,0.6-3,1.2-4.1c0.5-0.8,1.1-1.5,1.8-2c0.7-0.6,1.5-1,2.3-1.2c1.1-0.3,2.2-0.4,3.6-0.2
		c2.4,0.3,4.2,1.2,5.5,2.9s1.7,3.8,1.4,6.4c-0.3,2.6-1.3,4.6-2.8,5.9c-1.6,1.3-3.6,1.8-6,1.5c-2.4-0.3-4.2-1.2-5.5-2.9
		C717.2,153.2,716.7,151.1,717.1,148.5z M720.4,148.8c-0.2,1.8,0,3.3,0.8,4.3c0.7,1,1.8,1.6,3.1,1.8c1.3,0.2,2.4-0.2,3.4-1
		c0.9-0.8,1.5-2.2,1.7-4.1c0.2-1.9,0-3.3-0.7-4.3s-1.7-1.6-3.1-1.7c-1.3-0.2-2.5,0.2-3.4,1C721.2,145.6,720.6,146.9,720.4,148.8z"/>
	<path class="st3" d="M734.4,158.7l1.9-16.2l6.9,0.8c1.7,0.2,3,0.5,3.7,0.9c0.7,0.4,1.3,1,1.7,1.8c0.4,0.8,0.5,1.7,0.4,2.6
		c-0.1,1.2-0.6,2.2-1.4,2.9s-1.9,1.1-3.4,1.1c0.7,0.5,1.2,1,1.6,1.6c0.4,0.5,0.9,1.5,1.6,2.8l1.6,3.4l-3.9-0.5l-1.9-3.8
		c-0.7-1.4-1.2-2.2-1.4-2.6c-0.3-0.4-0.6-0.6-0.9-0.8c-0.3-0.2-0.9-0.3-1.6-0.4l-0.7-0.1l-0.8,6.8L734.4,158.7z M738.7,149.7
		l2.4,0.3c1.6,0.2,2.6,0.2,3,0.1s0.7-0.3,1-0.6c0.3-0.3,0.4-0.7,0.5-1.2c0.1-0.5,0-1-0.3-1.4c-0.3-0.4-0.6-0.6-1.2-0.8
		c-0.3-0.1-1.1-0.2-2.4-0.3l-2.5-0.3L738.7,149.7z"/>
	<path class="st3" d="M752.6,144.4l6,0.7c1.3,0.2,2.4,0.4,3,0.7c0.9,0.4,1.7,1,2.3,1.8c0.6,0.8,1,1.7,1.2,2.8
		c0.2,1.1,0.3,2.4,0.1,3.9c-0.2,1.3-0.5,2.5-0.9,3.4c-0.5,1.1-1.2,2-2.1,2.7c-0.6,0.5-1.4,0.8-2.4,1c-0.7,0.1-1.7,0.1-2.9,0
		l-6.1-0.7L752.6,144.4z M755.5,147.5l-1.3,10.7l2.4,0.3c0.9,0.1,1.6,0.1,2,0.1c0.5-0.1,1-0.2,1.4-0.5c0.4-0.3,0.7-0.8,1-1.5
		c0.3-0.7,0.5-1.7,0.7-2.9c0.1-1.3,0.1-2.2,0-2.9c-0.1-0.7-0.4-1.3-0.7-1.7c-0.4-0.4-0.8-0.7-1.4-0.9c-0.4-0.2-1.3-0.3-2.7-0.5
		L755.5,147.5z"/>
</g>
<polygon class="st13" points="685.8,259.8 682.8,261.2 685.3,263.4 682,264 683.7,266.8 680.5,266.4 681.3,269.5 678.3,268.2 
	678.3,271.5 675.7,269.4 674.8,272.5 672.9,269.8 671.1,272.5 670.1,269.4 667.6,271.5 667.5,268.2 664.5,269.5 665.4,266.4 
	662.1,266.8 663.9,264 660.6,263.4 663.1,261.2 660.1,259.8 663.1,258.4 660.6,256.2 663.9,255.7 662.1,252.9 665.4,253.3 
	664.5,250.1 667.5,251.4 667.6,248.1 670.1,250.2 671.1,247.1 672.9,249.8 674.8,247.1 675.7,250.2 678.3,248.1 678.3,251.4 
	681.3,250.1 680.5,253.3 683.7,252.9 682,255.7 685.3,256.2 682.8,258.4 "/>
<path class="st3" d="M530.5,110.5c0,0-5.1,4.6-10.9,6.8c-6,2.2-12.8,2.1-14.5,4c2.3,6.5,11.9,20.6,13.1,35.5s4.7,18.2,5.5,23.2
	s1.8,10.3-2.5,4S503.3,145,499,134.1s-4.6-25.5,8.7-31.3s20.3-2,25.3,4s11,26.4,12,36s6.8,23.4,7.3,28s-1.8,2.5-4.8-5.9
	S534.8,114.5,530.5,110.5z"/>
<g>
	<path class="st2" d="M108.1,216.5l6.9,5.2l2.7-0.9l7.6,0.9l1.5,1.9l-5.1-0.2l11.9,7.3c0,0,1,3.8-0.8,6.7c-1.8,2.9-6.5,4.3-6.5,4.3
		l-8-4.1l-5.7-6.1l-9.7-6.7L108.1,216.5z"/>
	<path class="st4" d="M90.5,201.2c-2.5-3.3-3.7-7.2-2.4-11.8c1.2-4.3,3.6-8.1,5.8-11.9c6.9-12.3,11.3-25.9,12.9-39.9
		c1.6-13.9-19.4-3-23.3,2.1c-4.4,5.7-6.2,12.9-9,19.4c-3.8,8.7-7.3,17.6-10.4,26.6c-2,5.7-8.1,18.6-3.1,24c1.3,1.5,3.1,2.4,4.9,3.4
		c2.8,1.5,36,17.9,37.1,16.4l10-13.2C106.2,212.3,95.6,207.9,90.5,201.2z"/>
</g>
</svg>
